<?xml version="1.0" encoding="UTF-8"?>
<svg id="Layer_2" data-name="Layer 2" xmlns="http://www.w3.org/2000/svg" viewBox="0 0 193.93 363.08">
  <defs>
    <style>
      .cls-1 {
        fill: #f50;
      }

      .cls-2 {
        fill: #0b2fb3;
      }
    </style>
  </defs>
  <g id="Layer_1-2" data-name="Layer 1">
    <g>
      <path class="cls-1" d="M186.45,93.7l-41.53-71.95C137.16,8.29,122.8,0,107.26,0h-20.59c-15.54,0-29.9,8.29-37.67,21.75L7.48,93.7C2.58,102.18,0,111.81,0,121.61v144.62C0,273.87,6.2,280.07,13.85,280.07h0c7.65,0,13.85-6.2,13.85-13.85v-66.02c0-7.65,6.2-13.85,13.85-13.85s13.85,6.2,13.85,13.85v34.24c0,7.65,6.2,13.85,13.85,13.85h0c7.65,0,13.85-6.2,13.85-13.85v-57.85c0-7.65,6.2-13.85,13.85-13.85h0c7.65,0,13.85,6.2,13.85,13.85v119.67c0,7.65,6.2,13.85,13.85,13.85h0c7.65,0,13.85-6.2,13.85-13.85v-79.73c0-7.65,6.2-13.85,13.85-13.85h0c7.65,0,13.85,6.2,13.85,13.85v49.67c0,7.65,6.2,13.85,13.85,13.85h0c7.65,0,13.85-6.2,13.85-13.85V121.61c0-9.8-2.58-19.42-7.48-27.91ZM96.97,94.1c-10.98,0-19.88-8.9-19.88-19.88s8.9-19.88,19.88-19.88,19.88,8.9,19.88,19.88-8.9,19.88-19.88,19.88Z"/>
      <circle class="cls-1" cx="69.26" cy="349.23" r="13.85"/>
      <circle class="cls-2" cx="180.08" cy="308.36" r="13.85"/>
      <circle class="cls-2" cx="13.85" cy="308.36" r="13.85"/>
      <path class="cls-2" d="M69.26,262.7c-7.65,0-13.85,6.2-13.85,13.85v30.57c0,7.65,6.2,13.85,13.85,13.85s13.85-6.2,13.85-13.85v-30.57c0-7.65-6.2-13.85-13.85-13.85Z"/>
    </g>
  </g>
</svg>