<?xml version="1.0" encoding="UTF-8"?>
<svg id="Layer_2" data-name="Layer 2" xmlns="http://www.w3.org/2000/svg" viewBox="0 0 653.48 175.39">
  <defs>
    <style>
      .cls-1 {
        fill: #0b2fb3;
      }
    </style>
  </defs>
  <g id="Layer_1-2" data-name="Layer 1">
    <g>
      <path class="cls-1" d="M59.57,2.54c.51-1.69,1.61-2.54,3.3-2.54h31.98c1.69,0,2.79.85,3.3,2.54l58.38,167.52c.51,1.69-.09,2.54-1.78,2.54h-33c-1.69,0-2.79-.84-3.3-2.54l-9.9-30.21h-60.41l-9.65,30.21c-.51,1.69-1.61,2.54-3.3,2.54H1.95c-1.69,0-2.28-.84-1.78-2.54L59.57,2.54ZM98.41,108.13l-19.54-60.41h-.76l-19.54,60.41h39.85Z"/>
      <path class="cls-1" d="M244.99,172.6c-1.69,0-2.54-.84-2.54-2.54v-8.88h-.25c-2.88,4.23-6.94,7.66-12.18,10.28-5.25,2.62-11.93,3.93-20.05,3.93-10.32,0-19.04-2.5-26.14-7.49s-12.27-12.31-15.48-21.96c-1.52-4.91-2.62-9.94-3.3-15.1-.68-5.16-1.01-11.72-1.01-19.67s.34-14.72,1.01-19.8c.67-5.08,1.78-10.07,3.3-14.98,3.21-9.81,8.38-17.17,15.48-22.08,7.11-4.91,15.82-7.36,26.14-7.36,8.12,0,14.81,1.31,20.05,3.93,5.24,2.63,9.3,6.05,12.18,10.28h.25V2.54c0-1.69.84-2.54,2.54-2.54h30.46c1.69,0,2.54.85,2.54,2.54v167.52c0,1.69-.85,2.54-2.54,2.54h-30.46ZM221.38,145.44c9.64,0,15.9-4.4,18.78-13.2.84-2.37,1.44-5.12,1.78-8.25.34-3.13.51-7.4.51-12.82s-.17-9.69-.51-12.82c-.34-3.13-.93-5.88-1.78-8.25-2.71-8.8-8.97-13.2-18.78-13.2s-16.33,4.4-19.04,13.2c-.85,2.37-1.44,5.12-1.78,8.25-.34,3.13-.51,7.4-.51,12.82s.17,9.69.51,12.82c.34,3.13.93,5.88,1.78,8.25,2.88,8.8,9.22,13.2,19.04,13.2Z"/>
      <path class="cls-1" d="M340.2,172.6c-1.52,0-2.54-.84-3.04-2.54l-43.66-117.77c-.51-1.69.17-2.54,2.03-2.54h31.98c1.69,0,2.79.85,3.3,2.54l23.86,72.85h.51l22.84-72.85c.51-1.69,1.61-2.54,3.3-2.54h31.47c1.86,0,2.54.85,2.03,2.54l-43.66,117.77c-.51,1.69-1.52,2.54-3.04,2.54h-27.92Z"/>
      <path class="cls-1" d="M478.96,175.39c-14.05,0-25.72-3.05-35.03-9.14-9.31-6.09-15.74-14.72-19.29-25.89-1.36-3.89-2.41-8.12-3.17-12.69-.76-4.57-1.14-10.07-1.14-16.5s.34-11.97,1.02-16.63c.67-4.65,1.69-8.92,3.04-12.82,3.55-11.17,9.94-19.75,19.16-25.76,9.22-6,20.43-9.01,33.63-9.01s25.08,3.05,34.14,9.14c9.05,6.09,15.36,14.56,18.91,25.38.67,2.03,1.27,4.19,1.78,6.47.51,2.28.93,4.87,1.27,7.74.34,2.88.59,6.22.76,10.03.17,3.81.25,8.34.25,13.58,0,1.69-.93,2.54-2.78,2.54h-74.13c-1.02,0-1.52.51-1.52,1.52.17,2.54.67,4.82,1.52,6.85,1.68,5.42,4.71,9.48,9.09,12.18,4.38,2.71,9.77,4.06,16.17,4.06,6.06,0,11.37-.97,15.92-2.92,4.54-1.94,8.59-4.61,12.13-8,1.52-1.18,2.71-1.18,3.55,0l16.75,15.74c1.35,1.19,1.44,2.37.25,3.55-5.93,6.26-13.29,11.26-22.08,14.98-8.8,3.72-18.87,5.58-30.21,5.58ZM497.75,98.23c1.01,0,1.52-.51,1.52-1.52,0-1.86-.13-3.51-.38-4.95-.25-1.44-.55-2.83-.88-4.19-1.35-4.23-3.83-7.53-7.44-9.9-3.62-2.37-7.95-3.55-13-3.55s-9.38,1.19-13,3.55c-3.62,2.37-6.1,5.67-7.44,9.9-.34,1.36-.63,2.75-.88,4.19-.25,1.44-.38,3.09-.38,4.95,0,1.02.5,1.52,1.52,1.52h40.37Z"/>
      <path class="cls-1" d="M606.51,175.39c-13.03,0-24.2-2.92-33.51-8.76-9.31-5.84-15.82-14.51-19.54-26.02-1.36-3.72-2.33-7.95-2.92-12.69-.6-4.74-.89-10.32-.89-16.75s.29-12.01.89-16.75c.59-4.74,1.56-8.97,2.92-12.69,3.72-11.51,10.24-20.18,19.54-26.02,9.3-5.84,20.47-8.76,33.51-8.76,10.66,0,19.96,2.16,27.92,6.47,7.95,4.31,14.13,9.86,18.53,16.63.84,1.36.67,2.54-.51,3.55l-22.08,14.47c-1.52,1.02-2.79.85-3.81-.51-2.71-3.72-5.54-6.43-8.5-8.12-2.96-1.69-6.64-2.54-11.04-2.54-4.74,0-8.76,1.1-12.06,3.3-3.3,2.2-5.63,5.5-6.98,9.9-.85,2.54-1.44,5.42-1.78,8.63-.34,3.22-.51,7.36-.51,12.44s.17,9.22.51,12.44c.34,3.22.93,6.09,1.78,8.63,1.35,4.4,3.68,7.7,6.98,9.9,3.3,2.2,7.32,3.3,12.06,3.3,4.4,0,8.08-.84,11.04-2.54,2.96-1.69,5.79-4.4,8.5-8.12,1.02-1.35,2.29-1.52,3.81-.51l22.08,14.47c1.18,1.02,1.35,2.2.51,3.55-4.4,6.77-10.58,12.31-18.53,16.62-7.96,4.32-17.26,6.47-27.92,6.47Z"/>
    </g>
  </g>
</svg>